# Blender 4.3.2
# www.blender.org
mtllib mymillwork_mach25.mtl
o Cube
v -0.510931 -0.431845 -0.488825
v -0.510931 -0.500000 -0.488825
v 0.488825 -0.431845 -0.510931
v 0.488825 -0.500000 -0.510931
v -0.488825 -0.431845 0.510931
v -0.488825 -0.500000 0.510931
v 0.510931 -0.431845 0.488825
v 0.510931 -0.500000 0.488825
v 0.267774 -0.408987 0.509729
v 0.267774 -0.243492 0.509729
v -0.244395 -0.408987 0.521054
v -0.244395 -0.243492 0.521054
v 0.245807 -0.408987 -0.519318
v 0.245807 -0.243492 -0.519318
v -0.266363 -0.408987 -0.507993
v -0.266363 -0.243492 -0.507993
v 0.273905 -0.413372 0.514242
v 0.273905 -0.177672 0.514242
v 0.205671 -0.413372 0.516543
v 0.205671 -0.177672 0.516543
v 0.251711 -0.413372 -0.516937
v 0.251711 -0.177672 -0.516937
v 0.183477 -0.413372 -0.514636
v 0.183477 -0.177672 -0.514636
v -0.170460 -0.280046 0.516925
v -0.170460 -0.181848 0.516925
v -0.247450 -0.280046 0.519370
v -0.247450 -0.181848 0.519370
v -0.190124 -0.276571 -0.506960
v -0.190124 -0.178372 -0.506960
v -0.267114 -0.276571 -0.504515
v -0.267114 -0.178372 -0.504515
vn -0.0000 1.0000 -0.0000
vn 0.9998 -0.0000 -0.0221
vn 0.0221 -0.0000 0.9998
vn -0.0000 -1.0000 -0.0000
vn -0.0221 -0.0000 -0.9998
vn -0.9998 -0.0000 0.0221
vn -0.9998 -0.0000 0.0213
vn 0.9998 -0.0000 -0.0213
vn 0.0337 -0.0000 0.9994
vn -0.9998 -0.0000 0.0215
vn -0.0337 -0.0000 -0.9994
vn 0.9998 -0.0000 -0.0215
vn 0.0317 -0.0000 0.9995
vn -0.9998 -0.0000 0.0192
vn -0.0317 -0.0000 -0.9995
vn 0.9998 -0.0000 -0.0192
vn -0.0001 -1.0000 -0.0034
vn 0.0001 1.0000 0.0034
vt 0.057207 0.000000
vt 1.982228 0.000000
vt 1.982228 0.988152
vt 0.057207 0.988152
vt 0.005924 0.988152
vt 0.057207 1.976304
vt 0.005924 1.976304
vt 0.005924 -1.976304
vt 0.057207 -1.976304
vt 0.057207 -0.988152
vt 0.005924 -0.988152
vt -0.982228 0.000000
vt 0.005924 0.000000
vt -0.982228 0.988152
vt 0.994076 -1.976304
vt 0.994076 -0.988152
vt 0.994076 0.000000
vt 0.994076 0.988152
vt 0.994076 1.976304
s 0
usemtl Material
f 1/1/1 5/2/1 7/3/1 3/4/1
f 4/5/2 3/4/2 7/6/2 8/7/2
f 8/8/3 7/9/3 5/10/3 6/11/3
f 6/12/4 2/13/4 4/5/4 8/14/4
f 2/13/5 1/1/5 3/4/5 4/5/5
f 6/11/6 5/10/6 1/1/6 2/13/6
f 9/8/3 10/15/3 12/16/3 11/11/3
f 11/11/7 12/16/7 16/17/7 15/13/7
f 15/13/5 16/17/5 14/18/5 13/5/5
f 13/5/8 14/18/8 10/19/8 9/7/8
f 11/12/4 15/13/4 13/5/4 9/14/4
f 16/17/1 12/2/1 10/3/1 14/18/1
f 17/8/9 18/15/9 20/16/9 19/11/9
f 19/11/10 20/16/10 24/17/10 23/13/10
f 23/13/11 24/17/11 22/18/11 21/5/11
f 21/5/12 22/18/12 18/19/12 17/7/12
f 19/12/4 23/13/4 21/5/4 17/14/4
f 24/17/1 20/2/1 18/3/1 22/18/1
f 25/8/13 26/15/13 28/16/13 27/11/13
f 27/11/14 28/16/14 32/17/14 31/13/14
f 31/13/15 32/17/15 30/18/15 29/5/15
f 29/5/16 30/18/16 26/19/16 25/7/16
f 27/12/17 31/13/17 29/5/17 25/14/17
f 32/17/18 28/2/18 26/3/18 30/18/18
