# Blender 4.3.2
# www.blender.org
mtllib mymillwork_mach25.mtl
o Cube
v 0.500000 -0.440000 -0.500000
v 0.500000 -0.500000 -0.500000
v 0.500000 -0.440000 0.500000
v 0.500000 -0.500000 0.500000
v -0.500000 -0.440000 -0.500000
v -0.500000 -0.500000 -0.500000
v -0.500000 -0.440000 0.500000
v -0.500000 -0.500000 0.500000
vn -0.0000 1.0000 -0.0000
vn -0.0000 -0.0000 1.0000
vn -1.0000 -0.0000 -0.0000
vn -0.0000 -1.0000 -0.0000
vn 1.0000 -0.0000 -0.0000
vn -0.0000 -0.0000 -1.0000
vt 0.625000 0.500000
vt 0.875000 0.500000
vt 0.875000 0.750000
vt 0.625000 0.750000
vt 0.375000 0.750000
vt 0.625000 1.000000
vt 0.375000 1.000000
vt 0.375000 0.000000
vt 0.625000 0.000000
vt 0.625000 0.250000
vt 0.375000 0.250000
vt 0.125000 0.500000
vt 0.375000 0.500000
vt 0.125000 0.750000
s 0
usemtl Material
f 1/1/1 5/2/1 7/3/1 3/4/1
f 4/5/2 3/4/2 7/6/2 8/7/2
f 8/8/3 7/9/3 5/10/3 6/11/3
f 6/12/4 2/13/4 4/5/4 8/14/4
f 2/13/5 1/1/5 3/4/5 4/5/5
f 6/11/6 5/10/6 1/1/6 2/13/6
o mymillwork_mach16
v -0.187500 -0.187500 -0.500000
v -0.250000 -0.187500 -0.500000
v -0.250000 -0.187500 0.500000
v -0.187500 -0.187500 0.500000
v -0.187500 -0.250000 -0.500000
v -0.187500 -0.250000 0.500000
v 0.187500 -0.250000 -0.500000
v 0.187500 -0.250000 0.500000
v 0.187500 -0.187500 -0.500000
v 0.187500 -0.187500 0.500000
v 0.250000 -0.187500 -0.500000
v 0.250000 -0.187500 0.500000
v 0.250000 -0.500000 0.500000
v 0.250000 -0.500000 -0.500000
v -0.250000 -0.500000 -0.500000
v -0.250000 -0.500000 0.500000
v -0.250000 -0.187500 -0.500000
v -0.187500 -0.187500 -0.500000
v 0.250000 -0.187500 -0.500000
v 0.187500 -0.187500 -0.500000
v -0.250000 -0.187500 0.500000
v -0.187500 -0.187500 0.500000
v 0.250000 -0.187500 0.500000
v 0.187500 -0.187500 0.500000
vn -0.0000 1.0000 -0.0000
vn 1.0000 -0.0000 -0.0000
vn -1.0000 -0.0000 -0.0000
vn -0.0000 -1.0000 -0.0000
vn -0.0000 -0.0000 -1.0000
vn -0.0000 -0.0000 1.0000
vt 0.312500 1.000000
vt 0.250000 1.000000
vt 0.250000 0.000000
vt 0.312500 0.000000
vt 1.000000 0.250000
vt 1.000000 0.312500
vt 0.000000 0.312500
vt 0.000000 0.250000
vt 0.687500 1.000000
vt 0.687500 0.000000
vt 0.750000 1.000000
vt 0.750000 0.000000
vt 0.000000 0.000000
vt 1.000000 0.000000
vt 0.312500 0.250000
vt 0.250000 0.312500
vt 0.312500 0.312500
vt 0.687500 0.250000
vt 0.750000 0.312500
vt 0.687500 0.312500
s 1
f 9/15/7 10/16/7 11/17/7
f 9/15/7 11/17/7 12/18/7
f 13/19/8 9/20/8 12/21/8
f 13/19/8 12/21/8 14/22/8
f 15/23/7 13/15/7 14/18/7
f 15/23/7 14/18/7 16/24/7
f 17/20/9 15/19/9 16/22/9
f 17/20/9 16/22/9 18/21/9
f 19/25/7 17/23/7 18/24/7
f 19/25/7 18/24/7 20/26/7
f 19/20/8 20/21/8 21/27/8
f 22/28/8 19/20/8 21/27/8
f 23/16/10 22/25/10 21/26/10
f 23/16/10 21/26/10 24/17/10
f 23/28/9 24/27/9 11/21/9
f 10/20/9 23/28/9 11/21/9
f 13/29/11 23/17/11 25/30/11
f 26/31/11 13/29/11 25/30/11
f 15/32/11 22/26/11 23/17/11
f 15/32/11 23/17/11 13/29/11
f 27/33/11 15/32/11 28/34/11
f 27/33/11 22/26/11 15/32/11
f 24/17/12 14/29/12 29/30/12
f 14/29/12 30/31/12 29/30/12
f 24/17/12 21/26/12 14/29/12
f 21/26/12 16/32/12 14/29/12
f 16/32/12 31/33/12 32/34/12
f 21/26/12 31/33/12 16/32/12
